<svg xmlns="http://www.w3.org/2000/svg" version="1.1" xmlns:xlink="http://www.w3.org/1999/xlink" xmlns:svgjs="http://svgjs.com/svgjs" width="994px" height="1200px"><svg xmlns="http://www.w3.org/2000/svg" version="1.1" width="994px" height="1200px" style="shape-rendering:geometricPrecision; text-rendering:geometricPrecision; image-rendering:optimizeQuality; fill-rule:evenodd; clip-rule:evenodd" xmlns:xlink="http://www.w3.org/1999/xlink">
<g><path style="opacity:0.997" fill="#2a4fea" d="M 553.5,-0.5 C 572.833,-0.5 592.167,-0.5 611.5,-0.5C 747.456,12.6976 853.289,75.6976 929,188.5C 966.417,248.251 987.917,313.251 993.5,383.5C 993.5,402.833 993.5,422.167 993.5,441.5C 983.688,553.956 937.021,647.79 853.5,723C 842.91,732.098 831.91,740.598 820.5,748.5C 805.213,617.53 743.547,515.03 635.5,441C 540.001,380.634 436.668,361.301 325.5,383C 269.907,395.007 219.24,417.507 173.5,450.5C 173.167,450.5 172.833,450.5 172.5,450.5C 162.741,318.576 204.408,206.076 297.5,113C 369.446,45.5381 454.779,7.70474 553.5,-0.5 Z"></path></g>
<g><path style="opacity:1" fill="#111329" d="M 820.5,748.5 C 708.011,824.93 586.344,843.763 455.5,805C 329.558,760.726 242.725,676.226 195,551.5C 183.544,518.718 176.377,485.051 173.5,450.5C 219.24,417.507 269.907,395.007 325.5,383C 436.668,361.301 540.001,380.634 635.5,441C 743.547,515.03 805.213,617.53 820.5,748.5 Z"></path></g>
<g><path style="opacity:0.997" fill="#1ba782" d="M 172.5,450.5 C 172.833,450.5 173.167,450.5 173.5,450.5C 176.377,485.051 183.544,518.718 195,551.5C 242.725,676.226 329.558,760.726 455.5,805C 586.344,843.763 708.011,824.93 820.5,748.5C 830.244,880.474 788.577,992.974 695.5,1086C 623.554,1153.46 538.221,1191.3 439.5,1199.5C 420.167,1199.5 400.833,1199.5 381.5,1199.5C 245.544,1186.3 139.711,1123.3 64,1010.5C 26.583,950.749 5.08304,885.749 -0.5,815.5C -0.5,796.167 -0.5,776.833 -0.5,757.5C 9.31202,645.044 55.9787,551.21 139.5,476C 150.09,466.902 161.09,458.402 172.5,450.5 Z"></path></g>
</svg><style>@media (prefers-color-scheme: light) { :root { filter: none; } }
</style></svg>