<svg version="1.2" xmlns="http://www.w3.org/2000/svg" viewBox="0 0 2789 850" width="2789" height="850">
	<title>icon_accessibility-svg</title>
	<style>
		.s0 { opacity: 1;fill: #2a4fea } 
		.s1 { fill: #111329 } 
		.s2 { opacity: 1;fill: #1ba782 } 
		.s3 { fill: #000000 } 
	</style>
	<g id="Layer">
		<g id="Map 1">
			<path id="Layer" fill-rule="evenodd" class="s0" d="m390.4 4q20.4 0 40.7 0 143 13.9 222.6 132.5 39.4 62.9 45.3 136.8 0 20.3 0 40.6-10.4 118.3-98.2 197.4-11.1 9.6-23.1 17.9-16.1-137.8-129.8-215.6-100.4-63.5-217.3-40.7-58.5 12.6-106.6 47.3-0.3 0-0.7 0-10.3-138.7 87.6-236.6 75.7-71 179.5-79.6z"/>
			<path id="Layer" fill-rule="evenodd" class="s1" d="m577.7 529.2q-118.3 80.4-256 39.6-132.4-46.6-182.6-177.8-12.1-34.4-15.1-70.8 48.1-34.7 106.6-47.3 116.9-22.8 217.3 40.7 113.7 77.8 129.8 215.6z"/>
			<path id="Layer" fill-rule="evenodd" class="s2" d="m123.3 320.2q0.4 0 0.7 0 3 36.4 15.1 70.8 50.2 131.2 182.6 177.8 137.7 40.8 256-39.6 10.2 138.8-87.7 236.6-75.7 71-179.5 79.6-20.3 0-40.7 0-142.9-13.9-222.6-132.5-39.3-62.9-45.2-136.7 0-20.4 0-40.7 10.3-118.3 98.2-197.4 11.1-9.6 23.1-17.9z"/>
		</g>
		<path id="Ablox" class="s3" aria-label="Ablox"  d="m1086.3 745l-40.6-132.4h-192.6l-41.4 132.4h-173.8l231-635h160.2l229.5 635zm-64-251.3l-63.2-168.5-64.7 168.5zm471-52.7c-18.8 0-36.8 6.8-48.9 20.3-12.8 13.6-19.5 32.4-19.5 53.5 0 23.3 6.7 42.9 19.5 56.4 12.1 13.5 30.1 20.3 48.9 20.3 39.2 0 64.8-30.1 64.8-76.7 0-43.7-26.4-73.8-64.8-73.8zm32.4 301c-39.1 0-68.5-9-94.1-30.1v33.1h-165.5v-640.3h165.5v231.7c9.1-9 27.1-19.5 38.4-24.8 19.6-8.3 42.2-13.5 64-13.5 52.6 0 102.3 22.5 136.9 62.4 17.3 20.3 30.1 43.7 39.9 70.7 10.5 27.1 14.3 57.2 14.3 88.8 0 32.4-3.8 62.5-14.3 89.6-9.8 26.3-23.3 50.4-40.6 69.9-18.1 20.4-39.9 36.2-63.2 46.7-25.6 10.5-53.5 15.8-81.3 15.8zm380 3h-165.6v-640.3h165.6zm0-218.2c0-120.4 97.8-217.4 218.2-217.4 120.3 0 218.2 97 218.2 217.4 0 120.4-97.9 218.2-218.2 218.2-120.4 0-218.2-97.8-218.2-218.2zm217.4 64.7c35.4 0 64-28.6 64-63.9 0-35.4-28.6-64-64-64-34.6 0-63.2 28.6-63.2 64 0 35.3 28.6 63.9 63.2 63.9zm479.3 154.3l-67.7-94.8-66.2 94.8h-179.1l147.5-222-140-215.2h182.8l58.7 90.3 61-90.3h182.1l-146 214.4 151.2 222.8z"/>
	</g>
</svg>